name C:\Users\u0101727\Documents\MyRepositories\upper-imu-dc\Results\main_tracking\Case_31\FLX01_linearAccelerations_groundFrame.mot
datacolumns 4
datarows 94
range 3.51000000 4.44000000
endheader 
time	radius_imu_x	radius_imu_y	radius_imu_z	
          3.51000000	         -0.13691414	          9.72698688	          0.67343741	
          3.52000000	         -0.21079856	          9.71507004	          0.71204906	
          3.53000000	         -0.26116713	          9.70374621	          0.71227518	
          3.54000000	         -0.28647584	          9.69259873	          0.67350710	
          3.55000000	         -0.28859584	          9.68192078	          0.59925628	
          3.56000000	         -0.27258837	          9.67333648	          0.49699814	
          3.57000000	         -0.24582638	          9.66991450	          0.37717040	
          3.58000000	         -0.21680461	          9.67533484	          0.25154571	
          3.59000000	         -0.19365353	          9.69221994	          0.13130204	
          3.60000000	         -0.18231714	          9.72069253	          0.02531349	
          3.61000000	         -0.18488114	          9.75822607	         -0.06077726	
          3.62000000	         -0.19894732	          9.80067708	         -0.12451698	
          3.63000000	         -0.21843716	          9.84346767	         -0.16597864	
          3.64000000	         -0.23529836	          9.88226045	         -0.18698554	
          3.65000000	         -0.24151510	          9.91342397	         -0.19035788	
          3.66000000	         -0.23068551	          9.93455670	         -0.17915710	
          3.67000000	         -0.19907023	          9.94459729	         -0.15632357	
          3.68000000	         -0.14535342	          9.94325253	         -0.12471511	
          3.69000000	         -0.06997400	          9.93005498	         -0.08729184	
          3.70000000	          0.02476580	          9.90390714	         -0.04719594	
          3.71000000	          0.13547757	          9.86387348	         -0.00729741	
          3.72000000	          0.25914942	          9.81083327	          0.03044176	
          3.73000000	          0.39461114	          9.74873053	          0.06530993	
          3.74000000	          0.54215335	          9.68445981	          0.09760816	
          3.75000000	          0.70106410	          9.62651023	          0.12813996	
          3.76000000	          0.86682589	          9.58303585	          0.15776687	
          3.77000000	          1.03025679	          9.55960283	          0.18685977	
          3.78000000	          1.17984439	          9.55682488	          0.21445069	
          3.79000000	          1.30596049	          9.56903448	          0.23750323	
          3.80000000	          1.40393756	          9.58552053	          0.25103747	
          3.81000000	          1.47440583	          9.59435368	          0.24937789	
          3.82000000	          1.52140142	          9.58678175	          0.22809224	
          3.83000000	          1.54942532	          9.55983576	          0.18576894	
          3.84000000	          1.56106045	          9.51621095	          0.12466210	
          3.85000000	          1.55666607	          9.46222570	          0.04973960	
          3.86000000	          1.53595960	          9.40539918	         -0.03324606	
          3.87000000	          1.49978313	          9.35270640	         -0.11942815	
          3.88000000	          1.45105398	          9.30958077	         -0.20553808	
          3.89000000	          1.39518879	          9.27929365	         -0.28983675	
          3.90000000	          1.34000122	          9.26282573	         -0.37165911	
          3.91000000	          1.29435475	          9.25984086	         -0.45040697	
          3.92000000	          1.26568294	          9.27006886	         -0.52417588	
          3.93000000	          1.25765572	          9.29324036	         -0.58901046	
          3.94000000	          1.26928554	          9.32693407	         -0.63966395	
          3.95000000	          1.29561018	          9.36449378	         -0.67128155	
          3.96000000	          1.32941888	          9.39554469	         -0.68069336	
          3.97000000	          1.36375666	          9.40883500	         -0.66693279	
          3.98000000	          1.39454780	          9.39523522	         -0.63132034	
          3.99000000	          1.42195140	          9.34953028	         -0.57723279	
          4.00000000	          1.44966138	          9.27090415	         -0.50961934	
          4.01000000	          1.48288026	          9.16259266	         -0.43438509	
          4.02000000	          1.52634236	          9.03126362	         -0.35759942	
          4.03000000	          1.58293470	          8.88624497	         -0.28466730	
          4.04000000	          1.65233282	          8.73847759	         -0.21974406	
          4.05000000	          1.72920459	          8.59947341	         -0.16522769	
          4.06000000	          1.80193965	          8.48058927	         -0.12116326	
          4.07000000	          1.85349584	          8.39237418	         -0.08499707	
          4.08000000	          1.86463262	          8.34365205	         -0.05214359	
          4.09000000	          1.81835140	          8.34027197	         -0.01723644	
          4.10000000	          1.70397237	          8.38359012	          0.02429307	
          4.11000000	          1.51958476	          8.46895377	          0.07459487	
          4.12000000	          1.27208982	          8.58521450	          0.13247150	
          4.13000000	          0.97482591	          8.71676504	          0.19439464	
          4.14000000	          0.64399851	          8.84811424	          0.25750046	
          4.15000000	          0.29584153	          8.96860282	          0.32254683	
          4.16000000	         -0.05424815	          9.07435990	          0.39454198	
          4.17000000	         -0.39070734	          9.16651278	          0.48032014	
          4.18000000	         -0.69636468	          9.24751990	          0.58460997	
          4.19000000	         -0.95242378	          9.31876490	          0.70735936	
          4.20000000	         -1.14041751	          9.38042198	          0.84340583	
          4.21000000	         -1.24515279	          9.43171878	          0.98306470	
          4.22000000	         -1.25749396	          9.46970606	          1.11209372	
          4.23000000	         -1.17640596	          9.48700922	          1.21139249	
          4.24000000	         -1.01040832	          9.47135306	          1.25872754	
          4.25000000	         -0.77869990	          9.40938332	          1.23458087	
          4.26000000	         -0.51097064	          9.29351773	          1.13056445	
          4.27000000	         -0.24338096	          9.12693785	          0.95446671	
          4.28000000	         -0.00974809	          8.92337352	          0.72720552	
          4.29000000	          0.16732235	          8.70374129	          0.47532919	
          4.30000000	          0.27864828	          8.49345638	          0.22721079	
          4.31000000	          0.32373037	          8.32050696	          0.01417989	
          4.32000000	          0.30539590	          8.21167360	         -0.13031552	
          4.33000000	          0.22952094	          8.18573881	         -0.17940190	
          4.34000000	          0.10850685	          8.24617506	         -0.12578640	
          4.35000000	         -0.03771939	          8.37794656	          0.01153040	
          4.36000000	         -0.18592398	          8.55091369	          0.19261873	
          4.37000000	         -0.31638967	          8.72854498	          0.37046338	
          4.38000000	         -0.41900065	          8.87874754	          0.50629315	
          4.39000000	         -0.49651252	          8.98337906	          0.58136850	
          4.40000000	         -0.56345239	          9.04330364	          0.60265351	
          4.41000000	         -0.63923136	          9.07607869	          0.59918045	
          4.42000000	         -0.73640975	          9.10531469	          0.60639727	
          4.43000000	         -0.85052014	          9.14648954	          0.64482924	
          4.44000000	         -0.95904782	          9.19791609	          0.70742740	
